<?xml version="1.0" encoding="UTF-8" standalone="no"?>
<!-- Created with Inkscape (http://www.inkscape.org/) -->

<svg
   xmlns:dc="http://purl.org/dc/elements/1.1/"
   xmlns:cc="http://creativecommons.org/ns#"
   xmlns:rdf="http://www.w3.org/1999/02/22-rdf-syntax-ns#"
   xmlns:svg="http://www.w3.org/2000/svg"
   xmlns="http://www.w3.org/2000/svg"
   xmlns:sodipodi="http://sodipodi.sourceforge.net/DTD/sodipodi-0.dtd"
   xmlns:inkscape="http://www.inkscape.org/namespaces/inkscape"
   version="1.0"
   width="61.503559"
   height="163.50356"
   id="svg2"
   inkscape:version="0.91 r"
   sodipodi:docname="INV_X1.svg">
  <metadata
     id="metadata31">
    <rdf:RDF>
      <cc:Work
         rdf:about="">
        <dc:format>image/svg+xml</dc:format>
        <dc:type
           rdf:resource="http://purl.org/dc/dcmitype/StillImage" />
      </cc:Work>
    </rdf:RDF>
  </metadata>
  <sodipodi:namedview
     pagecolor="#ffffff"
     bordercolor="#666666"
     borderopacity="1"
     objecttolerance="10"
     gridtolerance="10"
     guidetolerance="10"
     inkscape:pageopacity="0"
     inkscape:pageshadow="2"
     inkscape:window-width="640"
     inkscape:window-height="480"
     id="namedview29"
     showgrid="false"
     inkscape:zoom="2.2201352"
     inkscape:cx="30.75178"
     inkscape:cy="81.751778"
     inkscape:window-x="59"
     inkscape:window-y="24"
     inkscape:window-maximized="0"
     inkscape:current-layer="svg2" />
  <defs
     id="defs4" />
  <path
     d="m 12.253561,151.25 38,0 0,-140 -38,0 0,140"
     id="path24"
     style="fill:#01ffff;fill-opacity:0.1;stroke:#01ffff;stroke-width:0.5;stroke-linecap:round;stroke-linejoin:round;stroke-miterlimit:4;stroke-dasharray:none;stroke-dashoffset:0;stroke-opacity:1"
     inkscape:connector-curvature="0" />
  <path
     d="m 16.253561,83.25 26,0 0,-63 -26,0 0,63"
     id="path4"
     style="fill:#7ef46e;fill-opacity:0.5;stroke:#7ef46e;stroke-width:0.5;stroke-linecap:round;stroke-linejoin:round;stroke-miterlimit:4;stroke-dasharray:none;stroke-dashoffset:0;stroke-opacity:1"
     inkscape:connector-curvature="0" />
  <path
     d="m 16.253561,142.25 26,0 0,-41 -26,0 0,41"
     id="path5"
     style="fill:#7ef46e;fill-opacity:0.5;stroke:#7ef46e;stroke-width:0.5;stroke-linecap:round;stroke-linejoin:round;stroke-miterlimit:4;stroke-dasharray:none;stroke-dashoffset:0;stroke-opacity:1"
     inkscape:connector-curvature="0" />
  <path
     d="m 0.25356062,163.25 61.00000038,0 0,-71 -61.00000038,0 0,71"
     id="path1"
     style="fill:#ff8000;fill-opacity:0.1;stroke:#ff8000;stroke-width:0.5;stroke-linecap:round;stroke-linejoin:round;stroke-miterlimit:4;stroke-dasharray:none;stroke-dashoffset:0;stroke-opacity:1"
     inkscape:connector-curvature="0" />
  <path
     d="m 0.25356062,92.25 61.00000038,0 0,-92 -61.00000038,0 0,92"
     id="path0"
     style="fill:#00ff4c;fill-opacity:0.1;stroke:#00ff4c;stroke-width:0.5;stroke-linecap:round;stroke-linejoin:round;stroke-miterlimit:4;stroke-dasharray:none;stroke-dashoffset:0;stroke-opacity:1"
     inkscape:connector-curvature="0" />
  <path
     d="m 9.2535606,154.25 43.0000004,0 0,-62 -43.0000004,0 0,62"
     id="path2"
     style="fill:#135e04;fill-opacity:0.1;stroke:#135e04;stroke-width:0.5;stroke-linecap:round;stroke-linejoin:round;stroke-miterlimit:4;stroke-dasharray:none;stroke-dashoffset:0;stroke-opacity:1"
     inkscape:connector-curvature="0" />
  <path
     d="m 9.2535606,92.25 43.0000004,0 0,-83 -43.0000004,0 0,83"
     id="path3"
     style="fill:#ff0000;fill-opacity:0.1;stroke:#ff0000;stroke-width:0.5;stroke-linecap:round;stroke-linejoin:round;stroke-miterlimit:4;stroke-dasharray:none;stroke-dashoffset:0;stroke-opacity:1"
     inkscape:connector-curvature="0" />
  <path
     d="m 21.253561,96.25 5,0 0,51 5,0 0,-132 -5,0 0,73 -5,0 0,8"
     id="path6"
     style="fill:#e71f0d;fill-opacity:0.6;stroke:#e71f0d;stroke-width:0.5;stroke-linecap:round;stroke-linejoin:round;stroke-miterlimit:4;stroke-dasharray:none;stroke-dashoffset:0;stroke-opacity:1"
     inkscape:connector-curvature="0" />
  <path
     d="m 35.253561,36.25 6,0 0,-6 -6,0 0,6"
     id="path7"
     style="fill:#ffff00;fill-opacity:0.1;stroke:#ffff00;stroke-width:0.5;stroke-linecap:round;stroke-linejoin:round;stroke-miterlimit:4;stroke-dasharray:none;stroke-dashoffset:0;stroke-opacity:1"
     inkscape:connector-curvature="0" />
  <path
     d="m 35.253561,50.25 6,0 0,-6 -6,0 0,6"
     id="path8"
     style="fill:#ffff00;fill-opacity:0.1;stroke:#ffff00;stroke-width:0.5;stroke-linecap:round;stroke-linejoin:round;stroke-miterlimit:4;stroke-dasharray:none;stroke-dashoffset:0;stroke-opacity:1"
     inkscape:connector-curvature="0" />
  <path
     d="m 35.253561,119.25 6,0 0,-7 -6,0 0,7"
     id="path9"
     style="fill:#ffff00;fill-opacity:0.1;stroke:#ffff00;stroke-width:0.5;stroke-linecap:round;stroke-linejoin:round;stroke-miterlimit:4;stroke-dasharray:none;stroke-dashoffset:0;stroke-opacity:1"
     inkscape:connector-curvature="0" />
  <path
     d="m 35.253561,133.25 6,0 0,-7 -6,0 0,7"
     id="path10"
     style="fill:#ffff00;fill-opacity:0.1;stroke:#ffff00;stroke-width:0.5;stroke-linecap:round;stroke-linejoin:round;stroke-miterlimit:4;stroke-dasharray:none;stroke-dashoffset:0;stroke-opacity:1"
     inkscape:connector-curvature="0" />
  <path
     d="m 22.253561,95.25 6,0 0,-6 -6,0 0,6"
     id="path11"
     style="fill:#ffff00;fill-opacity:0.1;stroke:#ffff00;stroke-width:0.5;stroke-linecap:round;stroke-linejoin:round;stroke-miterlimit:4;stroke-dasharray:none;stroke-dashoffset:0;stroke-opacity:1"
     inkscape:connector-curvature="0" />
  <path
     d="m 16.253561,36.25 7,0 0,-6 -7,0 0,6"
     id="path12"
     style="fill:#ffff00;fill-opacity:0.1;stroke:#ffff00;stroke-width:0.5;stroke-linecap:round;stroke-linejoin:round;stroke-miterlimit:4;stroke-dasharray:none;stroke-dashoffset:0;stroke-opacity:1"
     inkscape:connector-curvature="0" />
  <path
     d="m 16.253561,50.25 7,0 0,-6 -7,0 0,6"
     id="path13"
     style="fill:#ffff00;fill-opacity:0.1;stroke:#ffff00;stroke-width:0.5;stroke-linecap:round;stroke-linejoin:round;stroke-miterlimit:4;stroke-dasharray:none;stroke-dashoffset:0;stroke-opacity:1"
     inkscape:connector-curvature="0" />
  <path
     d="m 16.253561,119.25 7,0 0,-7 -7,0 0,7"
     id="path14"
     style="fill:#ffff00;fill-opacity:0.1;stroke:#ffff00;stroke-width:0.5;stroke-linecap:round;stroke-linejoin:round;stroke-miterlimit:4;stroke-dasharray:none;stroke-dashoffset:0;stroke-opacity:1"
     inkscape:connector-curvature="0" />
  <path
     d="m 16.253561,133.25 7,0 0,-7 -7,0 0,7"
     id="path15"
     style="fill:#ffff00;fill-opacity:0.1;stroke:#ffff00;stroke-width:0.5;stroke-linecap:round;stroke-linejoin:round;stroke-miterlimit:4;stroke-dasharray:none;stroke-dashoffset:0;stroke-opacity:1"
     inkscape:connector-curvature="0" />
  <path
     d="m 12.253561,160.25 38,0 0,-17 -27,0 0,-34 -7,0 0,34 -4,0 0,17"
     id="path16"
     style="fill:#0000ff;fill-opacity:0.1;stroke:#0000ff;stroke-width:0.5;stroke-linecap:round;stroke-linejoin:round;stroke-miterlimit:4;stroke-dasharray:none;stroke-dashoffset:0;stroke-opacity:1"
     inkscape:connector-curvature="0" />
  <path
     d="m 12.253561,20.25 4,0 0,34 7,0 0,-34 27,0 0,-17 -38,0 0,17"
     id="path17"
     style="fill:#0000ff;fill-opacity:0.1;stroke:#0000ff;stroke-width:0.5;stroke-linecap:round;stroke-linejoin:round;stroke-miterlimit:4;stroke-dasharray:none;stroke-dashoffset:0;stroke-opacity:1"
     inkscape:connector-curvature="0" />
  <path
     d="m 35.253561,136.25 9,0 0,-110 -9,0 0,110"
     id="path18"
     style="fill:#0000ff;fill-opacity:0.1;stroke:#0000ff;stroke-width:0.5;stroke-linecap:round;stroke-linejoin:round;stroke-miterlimit:4;stroke-dasharray:none;stroke-dashoffset:0;stroke-opacity:1"
     inkscape:connector-curvature="0" />
  <path
     d="m 18.253561,99.25 10,0 0,-18 -10,0 0,18"
     id="path19"
     style="fill:#0000ff;fill-opacity:0.1;stroke:#0000ff;stroke-width:0.5;stroke-linecap:round;stroke-linejoin:round;stroke-miterlimit:4;stroke-dasharray:none;stroke-dashoffset:0;stroke-opacity:1"
     inkscape:connector-curvature="0" />
  <path
     d="m 12.253561,20.25 4,0 0,34 7,0 0,-34 27,0 0,-17 -38,0 0,17"
     id="path20"
     style="fill:#0000ff;fill-opacity:0.1;stroke:#0000ff;stroke-width:0.5;stroke-linecap:round;stroke-linejoin:round;stroke-miterlimit:4;stroke-dasharray:none;stroke-dashoffset:0;stroke-opacity:1"
     inkscape:connector-curvature="0" />
  <path
     d="m 12.253561,160.25 38,0 0,-17 -27,0 0,-34 -7,0 0,34 -4,0 0,17"
     id="path21"
     style="fill:#0000ff;fill-opacity:0.1;stroke:#0000ff;stroke-width:0.5;stroke-linecap:round;stroke-linejoin:round;stroke-miterlimit:4;stroke-dasharray:none;stroke-dashoffset:0;stroke-opacity:1"
     inkscape:connector-curvature="0" />
  <path
     d="m 35.253561,136.25 9,0 0,-110 -9,0 0,110"
     id="path22"
     style="fill:#0000ff;fill-opacity:0.1;stroke:#0000ff;stroke-width:0.5;stroke-linecap:round;stroke-linejoin:round;stroke-miterlimit:4;stroke-dasharray:none;stroke-dashoffset:0;stroke-opacity:1"
     inkscape:connector-curvature="0" />
  <path
     d="m 18.253561,99.25 10,0 0,-18 -10,0 0,18"
     id="path23"
     style="fill:#0000ff;fill-opacity:0.1;stroke:#0000ff;stroke-width:0.5;stroke-linecap:round;stroke-linejoin:round;stroke-miterlimit:4;stroke-dasharray:none;stroke-dashoffset:0;stroke-opacity:1"
     inkscape:connector-curvature="0" />
</svg>
